<mxfile host="app.diagrams.net" modified="2023-08-08T05:45:17.989Z" agent="Mozilla/5.0 (Windows NT 10.0; Win64; x64) AppleWebKit/537.36 (KHTML, like Gecko) Chrome/115.0.0.0 Safari/537.36" etag="APdwvxpwgMN2CAMSqwrJ" version="21.6.6" type="device">
  <diagram name="페이지-1" id="61entFZsblkPIEU7FtxZ">
    <mxGraphModel dx="1034" dy="478" grid="1" gridSize="10" guides="1" tooltips="1" connect="1" arrows="1" fold="1" page="1" pageScale="1" pageWidth="827" pageHeight="1169" math="0" shadow="0">
      <root>
        <mxCell id="0" />
        <mxCell id="1" parent="0" />
        <mxCell id="xTvLoYgl54Cp9gPIZNZ6-1" value="Actor" style="shape=umlActor;verticalLabelPosition=bottom;verticalAlign=top;html=1;outlineConnect=0;" parent="1" vertex="1">
          <mxGeometry x="40" y="140" width="30" height="60" as="geometry" />
        </mxCell>
        <mxCell id="xTvLoYgl54Cp9gPIZNZ6-2" value="DB" style="shape=cylinder3;whiteSpace=wrap;html=1;boundedLbl=1;backgroundOutline=1;size=15;" parent="1" vertex="1">
          <mxGeometry x="710" y="140" width="60" height="80" as="geometry" />
        </mxCell>
        <mxCell id="xTvLoYgl54Cp9gPIZNZ6-4" value="" style="rounded=0;whiteSpace=wrap;html=1;" parent="1" vertex="1">
          <mxGeometry x="120" y="80" width="550" height="230" as="geometry" />
        </mxCell>
        <mxCell id="xTvLoYgl54Cp9gPIZNZ6-5" value="" style="endArrow=none;dashed=1;html=1;dashPattern=1 3;strokeWidth=2;rounded=0;" parent="1" edge="1">
          <mxGeometry width="50" height="50" relative="1" as="geometry">
            <mxPoint x="270" y="380" as="sourcePoint" />
            <mxPoint x="270" y="40" as="targetPoint" />
          </mxGeometry>
        </mxCell>
        <mxCell id="xTvLoYgl54Cp9gPIZNZ6-6" value="View" style="text;html=1;strokeColor=none;fillColor=none;align=center;verticalAlign=middle;whiteSpace=wrap;rounded=0;" parent="1" vertex="1">
          <mxGeometry x="140" y="50" width="60" height="30" as="geometry" />
        </mxCell>
        <mxCell id="xTvLoYgl54Cp9gPIZNZ6-7" value="Controller" style="text;html=1;strokeColor=none;fillColor=none;align=center;verticalAlign=middle;whiteSpace=wrap;rounded=0;" parent="1" vertex="1">
          <mxGeometry x="340" y="50" width="60" height="30" as="geometry" />
        </mxCell>
        <mxCell id="xTvLoYgl54Cp9gPIZNZ6-8" value="" style="endArrow=none;dashed=1;html=1;dashPattern=1 3;strokeWidth=2;rounded=0;" parent="1" edge="1">
          <mxGeometry width="50" height="50" relative="1" as="geometry">
            <mxPoint x="490" y="380" as="sourcePoint" />
            <mxPoint x="490" y="40" as="targetPoint" />
          </mxGeometry>
        </mxCell>
        <mxCell id="xTvLoYgl54Cp9gPIZNZ6-9" value="Model" style="text;html=1;strokeColor=none;fillColor=none;align=center;verticalAlign=middle;whiteSpace=wrap;rounded=0;" parent="1" vertex="1">
          <mxGeometry x="550" y="50" width="60" height="30" as="geometry" />
        </mxCell>
        <mxCell id="xTvLoYgl54Cp9gPIZNZ6-10" value="" style="endArrow=classic;html=1;rounded=0;" parent="1" edge="1">
          <mxGeometry width="50" height="50" relative="1" as="geometry">
            <mxPoint x="80" y="170" as="sourcePoint" />
            <mxPoint x="700" y="170" as="targetPoint" />
          </mxGeometry>
        </mxCell>
        <mxCell id="xTvLoYgl54Cp9gPIZNZ6-11" value="" style="endArrow=classic;html=1;rounded=0;" parent="1" edge="1">
          <mxGeometry width="50" height="50" relative="1" as="geometry">
            <mxPoint x="690" y="190" as="sourcePoint" />
            <mxPoint x="80" y="190" as="targetPoint" />
          </mxGeometry>
        </mxCell>
        <mxCell id="xTvLoYgl54Cp9gPIZNZ6-12" value="" style="ellipse;whiteSpace=wrap;html=1;" parent="1" vertex="1">
          <mxGeometry x="580" y="310" width="60" height="50" as="geometry" />
        </mxCell>
        <mxCell id="xTvLoYgl54Cp9gPIZNZ6-13" value="VO" style="text;html=1;strokeColor=#FF0000;fillColor=none;align=center;verticalAlign=middle;whiteSpace=wrap;rounded=0;" parent="1" vertex="1">
          <mxGeometry x="580" y="320" width="60" height="30" as="geometry" />
        </mxCell>
        <mxCell id="xTvLoYgl54Cp9gPIZNZ6-14" value="DTO" style="ellipse;whiteSpace=wrap;html=1;" parent="1" vertex="1">
          <mxGeometry x="150" y="100" width="60" height="50" as="geometry" />
        </mxCell>
        <mxCell id="xTvLoYgl54Cp9gPIZNZ6-15" value="DAO" style="rounded=1;whiteSpace=wrap;html=1;" parent="1" vertex="1">
          <mxGeometry x="530" y="210" width="120" height="60" as="geometry" />
        </mxCell>
        <mxCell id="xTvLoYgl54Cp9gPIZNZ6-16" value="MVC 패턴 프로그래밍&lt;br&gt;Model - View - Controller의 역할을 분리하여 프로그래밍 하는 패턴. (유지보수가 쉬워지며, 생산성이 향상된다)&lt;br&gt;&lt;br&gt;DAO(Data Access Object) : 데이터베이스에 CRUD 작업을 수행하는 객체.&lt;br&gt;VO(Value Object) : 데이터베이스의 테이블의 데이터를 가져와 저장 할 수 있는 객체. (Read only) 성격이 강하다.&lt;br&gt;DTO(Data Transfer Object) : 데이터를 전송하는 객체. 즉 View단에서 사용자가 입력한 데이터를 전송할 때 사용하는 객체." style="rounded=1;whiteSpace=wrap;html=1;" parent="1" vertex="1">
          <mxGeometry x="79" y="370" width="670" height="130" as="geometry" />
        </mxCell>
        <mxCell id="xTvLoYgl54Cp9gPIZNZ6-17" value="Actor" style="shape=umlActor;verticalLabelPosition=bottom;verticalAlign=top;html=1;outlineConnect=0;" parent="1" vertex="1">
          <mxGeometry x="49" y="670" width="30" height="60" as="geometry" />
        </mxCell>
        <mxCell id="xTvLoYgl54Cp9gPIZNZ6-18" value="DB" style="shape=cylinder3;whiteSpace=wrap;html=1;boundedLbl=1;backgroundOutline=1;size=15;" parent="1" vertex="1">
          <mxGeometry x="719" y="670" width="60" height="80" as="geometry" />
        </mxCell>
        <mxCell id="xTvLoYgl54Cp9gPIZNZ6-20" value="" style="endArrow=none;dashed=1;html=1;dashPattern=1 3;strokeWidth=2;rounded=0;" parent="1" edge="1">
          <mxGeometry width="50" height="50" relative="1" as="geometry">
            <mxPoint x="279" y="910" as="sourcePoint" />
            <mxPoint x="279" y="570" as="targetPoint" />
          </mxGeometry>
        </mxCell>
        <mxCell id="xTvLoYgl54Cp9gPIZNZ6-21" value="View" style="text;html=1;strokeColor=none;fillColor=none;align=center;verticalAlign=middle;whiteSpace=wrap;rounded=0;" parent="1" vertex="1">
          <mxGeometry x="149" y="580" width="60" height="30" as="geometry" />
        </mxCell>
        <mxCell id="xTvLoYgl54Cp9gPIZNZ6-22" value="Controller" style="text;html=1;strokeColor=none;fillColor=none;align=center;verticalAlign=middle;whiteSpace=wrap;rounded=0;" parent="1" vertex="1">
          <mxGeometry x="349" y="580" width="60" height="30" as="geometry" />
        </mxCell>
        <mxCell id="xTvLoYgl54Cp9gPIZNZ6-23" value="" style="endArrow=none;dashed=1;html=1;dashPattern=1 3;strokeWidth=2;rounded=0;" parent="1" edge="1">
          <mxGeometry width="50" height="50" relative="1" as="geometry">
            <mxPoint x="499" y="910" as="sourcePoint" />
            <mxPoint x="499" y="570" as="targetPoint" />
          </mxGeometry>
        </mxCell>
        <mxCell id="xTvLoYgl54Cp9gPIZNZ6-24" value="Model" style="text;html=1;strokeColor=none;fillColor=none;align=center;verticalAlign=middle;whiteSpace=wrap;rounded=0;" parent="1" vertex="1">
          <mxGeometry x="559" y="580" width="60" height="30" as="geometry" />
        </mxCell>
        <mxCell id="xTvLoYgl54Cp9gPIZNZ6-31" value="&lt;h1&gt;Employees 테이블의 모든 사원 정보를 가져오기&lt;/h1&gt;" style="text;html=1;strokeColor=none;fillColor=none;spacing=5;spacingTop=-20;whiteSpace=wrap;overflow=hidden;rounded=0;" parent="1" vertex="1">
          <mxGeometry x="79" y="525" width="651" height="120" as="geometry" />
        </mxCell>
        <mxCell id="xTvLoYgl54Cp9gPIZNZ6-32" value="index.jsp" style="text;html=1;strokeColor=none;fillColor=none;align=center;verticalAlign=middle;whiteSpace=wrap;rounded=0;" parent="1" vertex="1">
          <mxGeometry x="140" y="910" width="60" height="30" as="geometry" />
        </mxCell>
        <mxCell id="xTvLoYgl54Cp9gPIZNZ6-33" value="" style="endArrow=classic;html=1;rounded=0;" parent="1" edge="1">
          <mxGeometry width="50" height="50" relative="1" as="geometry">
            <mxPoint x="90" y="660" as="sourcePoint" />
            <mxPoint x="270" y="660" as="targetPoint" />
            <Array as="points">
              <mxPoint x="190" y="660" />
            </Array>
          </mxGeometry>
        </mxCell>
        <mxCell id="xTvLoYgl54Cp9gPIZNZ6-34" value="① getEmployees()" style="text;html=1;strokeColor=none;fillColor=none;align=center;verticalAlign=middle;whiteSpace=wrap;rounded=0;" parent="1" vertex="1">
          <mxGeometry x="140" y="630" width="60" height="30" as="geometry" />
        </mxCell>
        <mxCell id="xTvLoYgl54Cp9gPIZNZ6-35" value="" style="endArrow=classic;html=1;rounded=0;" parent="1" edge="1">
          <mxGeometry width="50" height="50" relative="1" as="geometry">
            <mxPoint x="300" y="690" as="sourcePoint" />
            <mxPoint x="480" y="690" as="targetPoint" />
            <Array as="points">
              <mxPoint x="400" y="690" />
            </Array>
          </mxGeometry>
        </mxCell>
        <mxCell id="xTvLoYgl54Cp9gPIZNZ6-36" value="&lt;br&gt;getEmp.do/&lt;br&gt;doGet();" style="text;html=1;strokeColor=none;fillColor=none;align=center;verticalAlign=middle;whiteSpace=wrap;rounded=0;" parent="1" vertex="1">
          <mxGeometry x="365" y="645" width="60" height="30" as="geometry" />
        </mxCell>
        <mxCell id="xTvLoYgl54Cp9gPIZNZ6-37" value="GetEntireEmpData.java" style="text;html=1;strokeColor=none;fillColor=none;align=center;verticalAlign=middle;whiteSpace=wrap;rounded=0;" parent="1" vertex="1">
          <mxGeometry x="365" y="910" width="60" height="30" as="geometry" />
        </mxCell>
        <mxCell id="xTvLoYgl54Cp9gPIZNZ6-39" value="DAO" style="text;html=1;strokeColor=none;fillColor=none;align=center;verticalAlign=middle;whiteSpace=wrap;rounded=0;" parent="1" vertex="1">
          <mxGeometry x="560" y="615" width="60" height="30" as="geometry" />
        </mxCell>
        <mxCell id="v9kQB6_y0WHk_5L7APys-1" value="EmployeeCRUD.java" style="text;html=1;strokeColor=none;fillColor=none;align=center;verticalAlign=middle;whiteSpace=wrap;rounded=0;" vertex="1" parent="1">
          <mxGeometry x="570" y="910" width="60" height="30" as="geometry" />
        </mxCell>
        <mxCell id="v9kQB6_y0WHk_5L7APys-2" value="" style="endArrow=classic;html=1;rounded=0;" edge="1" parent="1">
          <mxGeometry width="50" height="50" relative="1" as="geometry">
            <mxPoint x="520" y="699.5" as="sourcePoint" />
            <mxPoint x="700" y="699.5" as="targetPoint" />
            <Array as="points">
              <mxPoint x="620" y="699.5" />
            </Array>
          </mxGeometry>
        </mxCell>
        <mxCell id="v9kQB6_y0WHk_5L7APys-3" value="selectAllEmp()" style="text;html=1;strokeColor=none;fillColor=none;align=center;verticalAlign=middle;whiteSpace=wrap;rounded=0;" vertex="1" parent="1">
          <mxGeometry x="580" y="670" width="60" height="30" as="geometry" />
        </mxCell>
        <mxCell id="v9kQB6_y0WHk_5L7APys-4" value="" style="endArrow=classic;html=1;rounded=0;" edge="1" parent="1">
          <mxGeometry width="50" height="50" relative="1" as="geometry">
            <mxPoint x="700" y="741" as="sourcePoint" />
            <mxPoint x="525" y="740.5" as="targetPoint" />
            <Array as="points">
              <mxPoint x="640" y="740" />
            </Array>
          </mxGeometry>
        </mxCell>
        <mxCell id="v9kQB6_y0WHk_5L7APys-5" value="List &amp;lt;Employee&amp;gt;selectAllEmp()" style="text;html=1;strokeColor=none;fillColor=none;align=center;verticalAlign=middle;whiteSpace=wrap;rounded=0;" vertex="1" parent="1">
          <mxGeometry x="590" y="710" width="60" height="30" as="geometry" />
        </mxCell>
        <mxCell id="v9kQB6_y0WHk_5L7APys-7" value="" style="endArrow=classic;html=1;rounded=0;" edge="1" parent="1">
          <mxGeometry width="50" height="50" relative="1" as="geometry">
            <mxPoint x="482.5" y="781" as="sourcePoint" />
            <mxPoint x="307.5" y="780.5" as="targetPoint" />
            <Array as="points">
              <mxPoint x="422.5" y="780" />
            </Array>
          </mxGeometry>
        </mxCell>
        <mxCell id="v9kQB6_y0WHk_5L7APys-8" value="json 반환" style="text;html=1;strokeColor=none;fillColor=none;align=center;verticalAlign=middle;whiteSpace=wrap;rounded=0;" vertex="1" parent="1">
          <mxGeometry x="365" y="750" width="60" height="30" as="geometry" />
        </mxCell>
      </root>
    </mxGraphModel>
  </diagram>
</mxfile>
